<svg xmlns="http://www.w3.org/2000/svg" xmlns:xlink="http://www.w3.org/1999/xlink" width="243" height="242" fill="none" xmlns:v="https://vecta.io/nano"><use xlink:href="#B" fill="#b4ae7b"/><use xlink:href="#B" stroke="#4d522a" stroke-width="2" stroke-miterlimit="2.61"/><path d="M204.539 50.797l-47.406 33.2v61.592l-11.919 8.335V50.146L121.5 33.533 97.792 50.146v103.788l-11.919-8.335V84.008l-47.406-33.2v124.766l23.443 16.431h119.167l23.442-16.431.021-124.777z" fill="#4d522a"/><path d="M103.336 53.022v92.567h36.331V53.016L121.501 40.3l-18.165 12.722zm95.534 8.658l-36.081 25.266v58.643l36.081 25.266V61.68zm-154.746 0l36.081 25.266v58.643l-36.081 25.266V61.68z" fill="#777e4d"/><path d="M57.666 110.404a8.09 8.09 0 0 1 1.622-4.718c1.024-1.362 2.453-2.365 4.082-2.867 3.214-.927 6.34 1.526 6.564 5.147a8.17 8.17 0 0 1-1.329 4.628 8.18 8.18 0 0 1-3.704 3.077c-3.787 1.396-7.252-1.12-7.236-5.267zm13.07 4.527c0-2.412 2.047-4.61 4.251-4.605a3.52 3.52 0 0 1 2.328 1.064c.615.634.971 1.475.995 2.358 0 2.251-2.407 4.647-4.569 4.585-1.782-.052-3.021-1.454-3.006-3.402zm.615 18.233c-1.834 0-2.084-.37-1.86-2.151l.922-8.257c.25-2.913.318-3.032 3.183-3.038h.724c2.834 0 2.922.157 2.438 3.058l-.932 6.439c-.443 2.417-2.287 3.965-4.475 3.959v-.01zm-8.2-14.883h3.647c1.099-.032 1.563.442 1.417 1.562-.521 4.064-.823 8.164-1.563 12.191-.599 3.36-1.756 6.553-5.209 8.231-1.563.76-3.178.63-4.788.448-.797-.094-1.474-.521-1.339-1.563l2.334-19.015c.156-1.412.729-1.901 2.084-1.828 1.12.021 2.271-.026 3.417-.026zm-11.898 2.193c3.501 0 3.542 0 3.178 3.594-.281 2.813-.339 5.673-1.38 8.367-1.005 2.604-3.251 3.995-5.803 3.646-.964-.13-1.615-.521-1.474-1.625l1.485-11.841c.182-1.563.823-2.438 2.547-2.146a9.09 9.09 0 0 0 1.448.005zm4.824-7.247c0 2.834-2.433 5.455-5.032 5.429-2.084 0-3.579-1.662-3.579-3.959 0-2.86 2.402-5.47 5.006-5.444 2.068.005 3.61 1.698 3.605 3.954v.02zm49.795 45.62c-.03-.071-.042-.148-.037-.224v-6.736c0-.182.063-.271.198-.271h1.141v7.293h-1.146a.19.19 0 0 1-.085-.014c-.027-.011-.051-.027-.071-.048zm3.542-7.231h1.136c.135 0 .203.089.203.271v6.736c.007.077-.007.154-.041.224 0 .041-.084.068-.178.068h-1.12v-7.299zm-2.24-3.058v.568h-2.198c-.194-.012-.387.025-.562.107s-.328.206-.444.362a2.13 2.13 0 0 0-.333 1.245v8.507c-.001.25.023.5.073.745.04.214.127.417.255.594.136.177.316.315.521.401.245.106.51.156.776.146h1.933v1.438h2.24v-1.423h1.928a1.8 1.8 0 0 0 .76-.14 1.28 1.28 0 0 0 .521-.401 1.55 1.55 0 0 0 .255-.594c.049-.246.071-.495.068-.745v-8.513c.023-.439-.093-.875-.333-1.245a1.16 1.16 0 0 0-1.032-.484h-2.193v-.584l-2.235.016zm10.68 11.57c-.032-.07-.047-.147-.042-.224v-8.601c0-.182.068-.27.203-.27h.881c.135 0 .203.088.203.27v8.601c.006.077-.007.154-.037.224 0 .047-.088.068-.182.068h-.854c-.115 0-.172-.021-.172-.068zm-.787-11.57a1.36 1.36 0 0 0-.642.104c-.202.086-.381.22-.52.391-.261.394-.389.861-.364 1.334v10.278c-.002.257.024.514.078.766.047.226.135.441.26.635.134.188.313.338.521.438a1.68 1.68 0 0 0 .782.167h2.604a1.67 1.67 0 0 0 .777-.167c.208-.1.387-.25.521-.438a1.77 1.77 0 0 0 .265-.635c.049-.253.074-.509.073-.766v-10.278c.025-.473-.103-.94-.364-1.334-.139-.17-.316-.304-.518-.39a1.35 1.35 0 0 0-.639-.105h-2.834zm10.492 0v6.033h-1.23v-6.033h-2.328v14.113h2.302v-5.648h1.23v5.648h2.302v-14.113h-2.276zm8.335 4.168l.109-.761c.023-.161.065-.318.125-.469.043-.104.12-.191.219-.245.12-.046.247-.067.375-.062v9.049h-1.682l.854-7.512zm0-4.168c-.343-.017-.684.068-.979.245-.234.157-.424.37-.553.62-.134.268-.229.554-.281.849l-.146.933-1.151 9.033h-.563v3.558h1.808v-1.125h3.61v1.125h1.808v-3.558h-.438v-11.68h-3.115zm-69.515 17.759v21.135h3.454v-17.488h1.844v17.488h3.459v-21.135h-8.757zm15.67 17.332a.73.73 0 0 1-.057-.333v-12.915c0-.271.099-.406.302-.406h1.328c.203 0 .307.135.307.406v12.889a.66.66 0 0 1-.062.333c-.036.068-.125.104-.266.104H82.32c-.05.007-.102.002-.149-.017a.31.31 0 0 1-.122-.087v.026zm-1.183-17.332a2.01 2.01 0 0 0-1.735.745 3.26 3.26 0 0 0-.552 1.995v15.394a5.43 5.43 0 0 0 .12 1.152 2.61 2.61 0 0 0 .396.948 2.08 2.08 0 0 0 .745.656c.364.174.764.258 1.167.245h3.918c.403.013.803-.071 1.167-.245a2.08 2.08 0 0 0 .745-.656 2.61 2.61 0 0 0 .396-.948 5.43 5.43 0 0 0 .12-1.152v-15.42a3.3 3.3 0 0 0-.552-1.995 2.01 2.01 0 0 0-1.735-.745l-4.199.026zm13.3 3.704h1.703c.203 0 .302.136.302.406v7.466a.67.67 0 0 1-.057.333c-.037.068-.125.104-.266.104h-1.683v-8.309zm-3.35-3.704v21.135h3.355v-5.626h2.896c.399.013.795-.062 1.162-.219.296-.132.553-.337.75-.594a2.37 2.37 0 0 0 .386-.891c.071-.369.106-.744.104-1.12v-10.143c.028-.661-.154-1.314-.521-1.865a1.72 1.72 0 0 0-.66-.544c-.262-.123-.551-.178-.841-.159l-6.632.026zm15.503 17.332a.72.72 0 0 1-.057-.333v-12.915c0-.271.099-.406.302-.406h1.333c.198 0 .302.135.302.406v12.889a.66.66 0 0 1-.062.333c-.037.068-.125.104-.266.104h-1.281a.29.29 0 0 1-.149-.017c-.048-.018-.09-.048-.122-.087v.026zm-1.177-17.332c-.329-.027-.658.026-.961.156a2.01 2.01 0 0 0-.774.589c-.385.591-.568 1.291-.521 1.995v15.394c-.003.387.035.773.114 1.152.068.339.203.661.396.948a2.09 2.09 0 0 0 .745.656c.364.174.764.258 1.167.245h3.918c.403.013.803-.071 1.167-.245a2.09 2.09 0 0 0 .745-.656c.193-.287.328-.609.396-.948a5.44 5.44 0 0 0 .119-1.152v-15.42c.035-.707-.158-1.406-.552-1.995a2.01 2.01 0 0 0-.774-.589c-.303-.13-.633-.183-.961-.156l-4.224.026zm20.525 0v17.494h-1.839v-17.494h-3.454v17.494h-1.844v-17.494h-3.449v21.135h14.04v-21.135h-3.454zm6.913 0v21.135h6.439l.583-3.933h-3.516v-4.605h2.797v-3.647h-2.797v-5.011h3.646l-.573-3.939h-6.579zm15.68 0v9.013h-1.844v-9.013h-3.449v21.135h3.449v-8.476h1.844v8.45h3.454v-21.109h-3.454zm12.602 0l-1.724 9.07h-.521v-9.07h-3.449v21.135h3.449v-8.742h.677l1.328 8.716h3.709l-2.005-11.398 2.031-9.737-3.495.026zm10.898 7.668l.792 7.466h-1.563l.771-7.466zm-1.813-7.668l-3.052 21.135h3.406l.303-2.605h2.307l.303 2.605h3.407l-3.058-21.135h-3.616z" fill="#b4ae7b"/><path d="M145.21 194.808v13.649l-23.709 16.602-23.708-16.602v-13.649h47.417z" fill="#4d522a"/><path d="M139.941 200.069h-36.888v5.647l18.446 12.914 18.442-12.914v-5.647z" fill="#777e4d"/><path d="M119.119 101.553a2.28 2.28 0 0 0 2.239-2.717c-.088-.442-.304-.848-.622-1.167s-.724-.536-1.166-.624a2.28 2.28 0 0 0-1.316.129c-.416.172-.772.464-1.022.838a2.27 2.27 0 0 0-.384 1.265 2.26 2.26 0 0 0 .171.871c.114.276.281.527.492.739a2.29 2.29 0 0 0 .738.494c.275.114.571.173.87.173zm10.02-10.497c.557 0 1.26 2.829 1.417 3.48l-.152.13s3.246 1.693 3.246 2.349c0 .359-4.345.432-6.715.448.813-3.391 1.802-6.408 2.204-6.408zm2.604 17.712c0 .631-3.605 1.448-3.605 1.448l.078.12c-.151.266-1.719 2.959-2.245 2.959-.411 0-.583-3.125-.401-6.678 3.308.776 6.184 1.734 6.184 2.125l-.011.026zm-17.592 3.043c-.641-.162-1.532-4.027-1.532-4.027l-.099.078c-.104-.058-2.969-1.714-2.969-2.256 0-.417 3.162-.589 6.71-.401-.563 2.214-1.74 6.668-2.1 6.58l-.01.026zm12.086-11.065c3.219.156 11.106.182 11.106-3.345 0-2.047-2.974-3.98-4.094-4.636-.209-.828-1.527-5.605-4.027-5.475-2.719.146-5.475 7.022-6.387 15.55a47.04 47.04 0 0 0-3.001-.401c-8.595-.902-14.164-.558-14.164 2.714s4.24 4.793 4.24 4.793h.042c.073.286 1.276 4.954 3.647 5.548 3.443.854 5.319-6.866 5.939-10.008l.281.032a42.35 42.35 0 0 1 2.714.442c-.521 6.903.099 11.222 2.975 11.222 3.261 0 4.777-4.246 4.777-4.246v-.089c1.239-.338 5.365-1.651 5.246-3.98-.11-2.084-4.079-4.167-9.706-5.438 0-.141.037-.282.052-.422.105-.735.224-1.501.37-2.287l-.01.026z" fill="#b4ae7b" fill-rule="evenodd"/><path fill-rule="evenodd" d="M119.119 97.974a1.3 1.3 0 0 1 1.207.8c.1.238.126.5.077.753a1.31 1.31 0 0 1-.356.669 1.3 1.3 0 0 1-1.42.284 1.3 1.3 0 0 1-.585-.479c-.143-.215-.22-.467-.22-.725a1.31 1.31 0 0 1 .098-.498 1.29 1.29 0 0 1 .28-.423 1.3 1.3 0 0 1 .919-.382z" fill="#777e4d"/><g fill="#b4ae7b"><path d="M188.383 105.299c-.682-.136-2.954-.407-4.944-.584l-1.365-.052c.829-.219.917-.375.917-.833v-4.1c0-.479 0-.724-.88-1.042h1.615a.34.34 0 0 0 .338-.338 2.6 2.6 0 0 0-.643-1.735c-.42-.48-1.001-.79-1.633-.87a3.86 3.86 0 0 0-.443-.026h-.068a3.84 3.84 0 0 0-.442.026 2.6 2.6 0 0 0-1.633.87c-.42.48-.649 1.097-.644 1.735a.34.34 0 0 0 .339.339h.349c.224 0 .38.063.38.349v5.288c.002.092-.033.182-.096.25s-.15.109-.243.114a48.76 48.76 0 0 0-5.053.615c-.09.024-.169.077-.224.152a.41.41 0 0 0-.078.259v2.459l7.377-1.563 7.381 1.563v-2.453c.004-.094-.024-.186-.08-.261s-.136-.128-.227-.151m-22.513 3.932l1.125 4.392-2.604 3.495s4.407 1.527 11.117 1.402 8.293-.714 12.648-.714 6.835.802 6.835.802h-.359c-.452-.028-.903.05-1.318.229l-4.689 1.751c-.035.014-.066.036-.09.064s-.041.062-.05.099-.007.074.003.11.028.069.054.097l.474.489a.34.34 0 0 0 .171.092c.064.014.131.009.193-.013l6.773-2.553a1.7 1.7 0 0 0 1.094-1.563v-4.261c-.001-.64-.219-1.26-.617-1.76a2.83 2.83 0 0 0-1.576-.996c-2.241-.479-4.529-.705-6.82-.672-6.032 0-6.72.682-13.544.682a36.2 36.2 0 0 1-8.856-1.151"/><path d="M180.513 110.169v-1.333a2.53 2.53 0 0 1 .214-1.003c.139-.316.341-.6.593-.836v3.1l2.808-.251c.057-.005.11-.031.149-.074s.06-.097.059-.155v-1.224c.001-.15-.042-.296-.122-.423s-.195-.227-.331-.291l-2.563-1.219-2.568 1.219c-.135.064-.249.165-.329.292a.77.77 0 0 0-.119.422v1.688c0 .03.006.06.018.088s.029.053.051.074.048.037.076.048.059.015.089.014l1.975-.136zm8.712 13.191c0-.749-.298-1.468-.827-1.999s-1.247-.829-1.997-.83h-9.778l.974-.37c.107-.039.199-.11.264-.203s.101-.204.101-.318v-.833l-3.47 1.318c-.318.12-.593.333-.789.612s-.301.61-.305.951v4.167a2.83 2.83 0 0 0 .214 1.082 2.81 2.81 0 0 0 2.61 1.747H186l-.974.37c-.106.04-.198.111-.263.204a.56.56 0 0 0-.102.317v.833l3.475-1.318c.319-.12.594-.333.789-.612s.302-.61.305-.951l-.005-4.167z"/><path d="M184.309 120.307v-1.735c0-.031-.006-.062-.019-.09s-.03-.055-.054-.076-.05-.037-.079-.047-.061-.014-.093-.011l-2.531.224c-.057.004-.11.03-.149.071a.23.23 0 0 0-.06.153v1.735h2.756c.06 0 .117-.023.16-.065s.068-.099.069-.159zm-3.787.224v-1.62a.25.25 0 0 0-.02-.09c-.013-.028-.032-.054-.054-.075s-.05-.037-.08-.047-.06-.014-.091-.012l-1.771.104c-.058.003-.113.027-.154.069a.23.23 0 0 0-.065.155v1.313c.001.06.026.117.069.159s.1.065.16.065l2.006-.021zm11.305 12.696l.292-4.46c.001-.02-.004-.039-.013-.057s-.024-.032-.041-.043-.037-.015-.056-.015-.04.006-.057.016c-.844.474-4.689 2.444-10.653 2.444a22.37 22.37 0 0 1-7.945-1.443c-.224-.084-.802-.323-1-.407.35.057.71.021 1.042-.104l.849-.323c.037-.014.07-.037.096-.068s.042-.067.048-.106.002-.08-.012-.117-.038-.07-.069-.094l-.495-.417a.45.45 0 0 0-.454-.078l-1.354.521a1.67 1.67 0 0 0-.604.389c-.17.172-.302.378-.386.606l-1.698 4.662a2.41 2.41 0 0 0-.21.978 2.4 2.4 0 0 0 .208.977c.137.308.338.584.588.809a2.4 2.4 0 0 0 .867.497 29.03 29.03 0 0 0 10.664 2.152 30.97 30.97 0 0 0 13.638-3.084c.018-.008.032-.02.044-.035s.019-.032.022-.051.002-.037-.004-.055-.017-.034-.03-.047l-3.277-3.037"/><path d="M184.309 130.736v-1.458c-.001-.06-.026-.117-.069-.159s-.1-.065-.16-.065h-2.532c-.059 0-.116.023-.158.065s-.066.099-.066.159v1.833a27.21 27.21 0 0 0 2.782-.145c.056-.008.107-.035.144-.077s.058-.096.059-.153zm-3.787.36v-1.818c-.001-.06-.026-.117-.069-.159s-.1-.065-.16-.065h-1.777c-.06 0-.117.023-.16.065s-.068.099-.069.159v1.432c0 .055.02.109.056.15a.22.22 0 0 0 .142.074 22.16 22.16 0 0 0 2.037.162z"/></g><g fill="#4d522a"><path d="M176.516 131.789c1.002.216 2.016.366 3.038.448 0 .375-.042.755-.068 1.13-.521-.041-1.167-.146-1.704-.224l-.109.98 1.229.156c.25.027.478.153.635.348a.95.95 0 0 1 .204.694l-.094 1.906c.014.138-.004.277-.052.406a.9.9 0 0 1-.227.341c-.101.095-.222.165-.354.205a.9.9 0 0 1-.409.028c-1.02-.119-2.034-.293-3.037-.521l.954-5.871-.006-.026zm1.407 5.282c.094 0 .162-.047.172-.166l.135-1.423c0-.104-.041-.208-.125-.218l-.521-.079-.208 1.798.547.088zm4.94-4.741c.521-.031.817.292.864.912l.177 2.501c.016.125.005.253-.031.375s-.096.234-.177.332a.93.93 0 0 1-.656.334l-1.292.027v1.604c-.521 0-1.089 0-1.631-.052l.209-6.038c.839.056 1.681.064 2.521.026l.016-.021zm-1.162 1.105l.026 2.375h.484c.028-.001.056-.008.081-.02s.047-.03.065-.052.03-.047.038-.074a.21.21 0 0 0 .004-.083l-.057-1.933c.003-.027 0-.054-.009-.08s-.022-.049-.04-.07a.19.19 0 0 0-.065-.047c-.025-.011-.052-.016-.079-.016h-.448zm-8.565-2.021a.6.6 0 0 1 .119-.21c.053-.061.118-.111.191-.146a.61.61 0 0 1 .233-.06.6.6 0 0 1 .238.036l1.235.416c.411.131.917.355.698 1.334l-.224.979c-.036.17-.133.32-.272.424a.71.71 0 0 1-.484.139c.087.025.169.067.239.124a.66.66 0 0 1 .173.206.68.68 0 0 1 .081.256c.01.09.002.181-.024.268l-.281 1.199c-.031.166-.1.324-.201.46s-.232.247-.383.325a1.12 1.12 0 0 1-.488.122c-.169.003-.337-.033-.491-.105l-1.485-.49c-.15-.055-.274-.168-.343-.313s-.078-.311-.026-.463l.166-.49 1.402.521c.073 0 .255.083.349-.229l.208-.776c.073-.256-.063-.302-.146-.328l-1.365-.521.323-.98 1.277.464a.21.21 0 0 0 .089.02c.031 0 .062-.007.09-.021a.2.2 0 0 0 .072-.057c.019-.024.033-.053.04-.083l.245-.859c.017-.049.015-.102-.007-.149s-.06-.083-.107-.101l-1.287-.469.146-.448m15.238 5.042c.039.153.046.312.02.468a1.12 1.12 0 0 1-.172.435c-.088.132-.202.243-.336.327a1.12 1.12 0 0 1-.44.161l-1.641.292a1.03 1.03 0 0 1-.456 0c-.151-.033-.292-.1-.413-.194a1.04 1.04 0 0 1-.402-.796l-.328-3.767c-.083-1.041.521-1.255.828-1.307l1.49-.281c.318-.068.933-.068 1.131.948l.724 3.709-.005.005zm-2.626-3.417c-.017 0-.034.004-.049.012a.1.1 0 0 0-.039.032c-.011.013-.018.029-.022.046a.12.12 0 0 0 .001.05l.484 3.694c0 .017.003.034.009.05s.016.031.028.044c.042.015.088.015.13 0l.37-.068c.044-.006.085-.024.12-.052.011-.034.011-.071 0-.104l-.553-3.683c0-.08-.047-.112-.14-.094l-.339.073z"/><path d="M188.076 132.226l1.396-.453 1.495 5.137-1.63.521-1.261-5.21"/><path d="M188.061 130.971l-.208.062a.27.27 0 0 0-.104.053c-.031.024-.056.055-.075.09s-.028.073-.031.112.003.078.017.115c0 .099.047.204.068.308.005.042.02.082.042.119a.29.29 0 0 0 .201.142.32.32 0 0 0 .127-.001l.213-.068a.35.35 0 0 0 .186-.176c.037-.08.044-.172.017-.256l-.078-.302c-.008-.04-.025-.077-.05-.109s-.055-.059-.091-.078a.26.26 0 0 0-.116-.031c-.04-.002-.08.005-.118.02zm1.02-.287l-.208.073c-.038.011-.073.029-.103.054s-.055.055-.074.09-.028.072-.031.111a.28.28 0 0 0 .015.115l.068.271c.007.041.023.081.046.115s.053.065.089.087.074.038.116.044.083.004.124-.006l.219-.073c.08-.038.143-.104.177-.186s.035-.174.005-.257l-.078-.266a.27.27 0 0 0-.05-.104c-.024-.03-.055-.054-.091-.071s-.073-.025-.112-.024-.077.01-.112.027z"/></g><path d="M181.332 140.098v3.167c-.363-.555-.606-1.179-.714-1.833a9.35 9.35 0 0 1-.099-1.438v-.146l-1.912-.141c-.034-.004-.068 0-.1.011s-.062.029-.086.053-.042.054-.053.086-.015.066-.011.1c.311 2.47 1.34 4.794 2.959 6.684 1.6-1.874 2.627-4.169 2.959-6.611.004-.033.001-.066-.01-.097s-.028-.061-.051-.084-.05-.043-.081-.055a.23.23 0 0 0-.097-.014l-2.183.094h-.297c-.03 0-.059.006-.086.017s-.052.028-.073.049-.037.045-.048.072-.017.057-.017.086z" fill="#b4ae7b"/><g fill="#4d522a"><path d="M170.37 111.243c1.303.16 2.615.245 3.928.255v1.089c-.734 0-1.464-.037-2.193-.084v.954l1.683.078c.13-.009.262.008.386.051a.97.97 0 0 1 .335.198c.098.088.176.195.231.314a.96.96 0 0 1 .089.38v1.948a.94.94 0 0 1-.047.417.95.95 0 0 1-.223.355.94.94 0 0 1-.355.223c-.133.047-.276.063-.416.047a32.83 32.83 0 0 1-3.418-.25v-5.975zm2.605 5.157c.099 0 .161-.057.161-.172v-1.485c.004-.047-.011-.095-.041-.132a.2.2 0 0 0-.12-.071c-.292 0-.578-.031-.865-.047v1.876l.86.031h.005zm5.903-5.053c.646-.042.974.271.974.87v2.433a1.05 1.05 0 0 1-.308.699c-.188.186-.439.293-.703.301l-1.63.089v1.667l-1.678.052v-5.965l3.345-.146zm-1.667 1.12v2.303l.781-.042a.21.21 0 0 0 .086-.018c.028-.011.052-.028.073-.05a.22.22 0 0 0 .046-.074c.011-.028.015-.058.014-.087v-1.876c0-.114-.073-.203-.229-.198l-.771.042zm4.478 3.803l-.151.802-1.698.125 1.328-5.267a1.12 1.12 0 0 1 .369-.576c.181-.149.403-.237.637-.252l.995-.073 1.526 5.762-1.703.109-.152-.713-1.151.083zm.188-.943l.781-.057-.385-2.053-.396 2.11zm6.413-4.496v1.089h-1.151v4.767l-1.766.057v-4.762l-1.151.058v-1.089l4.068-.12zm4.818 6.226l-1.563-.204v-2.448l-1.282 2.349-1.365-.057v-5.861l1.735.084v2.349l.886-1.615c.104-.188.265-.339.459-.432a1.04 1.04 0 0 1 .624-.089l.521.073v5.861m-12.198 10.601h-1.699v-5.022h-.906v5.022h-1.693v-6.069h4.298v6.069z"/><path d="M185.999 126.809a.97.97 0 0 1-.057.328c-.042.106-.11.199-.198.271a1.01 1.01 0 0 1-.365.192 1.94 1.94 0 0 1-.573.068h-1.927c-.193.005-.386-.018-.573-.068a1.01 1.01 0 0 1-.365-.192c-.088-.072-.156-.165-.198-.271s-.057-.217-.057-.328v-4.423a.69.69 0 0 1 .271-.573 1.39 1.39 0 0 1 .854-.214h2.084a1.38 1.38 0 0 1 .854.214.69.69 0 0 1 .271.573l-.021 4.423zm-2.49-4.168c-.099 0-.146.042-.146.12v3.699a.14.14 0 0 0 .026.099c.043.012.088.012.131 0h.63c.044.013.091.013.135 0 .02-.03.029-.065.026-.099v-3.699c0-.078-.046-.12-.145-.12h-.657z"/></g><defs ><path id="B" d="M121.5 241c66.274 0 120-53.726 120-120S187.774 1 121.5 1 1.5 54.726 1.5 121s53.726 120 120 120z"/></defs></svg>